<?xml version="1.0" encoding="UTF-8"?>
<svg version="1.1" xmlns="http://www.w3.org/2000/svg" width="500" height="500">
<path d="M0 0 C165 0 330 0 500 0 C500 165 500 330 500 500 C335 500 170 500 0 500 C0 335 0 170 0 0 Z " fill="#000000" transform="translate(0,0)"/>
<path d="M0 0 C0.66 0 1.32 0 2 0 C3.53036298 2.03337074 4.95969368 4.07598319 6.375 6.1875 C10.85729967 12.68048107 15.83187088 18.41143596 21.26953125 24.11328125 C23.40864215 26.37480193 25.40607716 28.65714086 27.375 31.0625 C32.57233699 37.05457541 38.87772208 41.99237143 45 47 C45.53931152 47.44134277 46.07862305 47.88268555 46.63427734 48.33740234 C67.65899792 65.37365799 91.91362081 78.28269062 115.1875 91.9375 C115.77857544 92.28435852 116.36965088 92.63121704 116.9786377 92.98858643 C122.24823214 96.07873075 127.51839448 99.16662202 132.83447266 102.17626953 C133.46654129 102.53459366 134.09860992 102.89291779 134.74983215 103.26210022 C136.50922163 104.25753119 138.27077973 105.24912638 140.0324707 106.24047852 C154.07212744 114.56493809 161.53563277 129.76862944 166 145 C170.60093315 144.45871375 173.47648821 143.00966632 177 140 C182.19468222 132.92870483 183.10587874 125.59093169 182 117 C180.75783187 113.66058986 180.09316549 113.06211033 177 111 C174.26127045 110.54227937 174.26127045 110.54227937 171.3125 110.375 C170.31863281 110.30023438 169.32476562 110.22546875 168.30078125 110.1484375 C167.16189453 110.07496094 167.16189453 110.07496094 166 110 C166.36357986 103.57675575 166.36357986 103.57675575 169 101.1875 C172.27108461 99.89269568 175.43429625 99.20649104 178.87890625 98.5390625 C181.16971545 98.08206589 181.16971545 98.08206589 183.4375 96.375 C188.50155248 93.65770355 193.66325774 94.35784182 199.0703125 95.84375 C206.85350286 98.73074793 211.91319647 102.6424282 216.06665039 109.85131836 C217.08899212 112.20487042 217.23966963 113.79135746 217.23828125 116.34375 C217.25117188 117.17285889 217.2640625 118.00196777 217.27734375 118.85620117 C217.28894531 119.72865479 217.30054688 120.6011084 217.3125 121.5 C217.54047788 129.38019778 218.01844908 139.01844908 224 145 C224.20568604 144.48203857 224.41137207 143.96407715 224.62329102 143.43041992 C232.66820486 123.33263265 240.1128861 112.20560701 259.1875 101.375 C261.32195329 100.14642159 263.45606037 98.91724153 265.58984375 97.6875 C267.19641846 96.76517578 267.19641846 96.76517578 268.83544922 95.82421875 C276.38340079 91.47316998 283.8682195 87.01379155 291.359375 82.56591797 C293.96619449 81.02004702 296.5767648 79.48065221 299.1875 77.94140625 C315.52620534 68.27191177 331.36489439 58.1282631 346 46 C346.59828613 45.50467773 347.19657227 45.00935547 347.81298828 44.49902344 C359.00202521 35.18222029 368.95563584 25.45522052 378 14 C378.48388184 13.38769531 378.96776367 12.77539062 379.46630859 12.14453125 C382.65587097 8.10542667 385.83209253 4.05610583 389 0 C389.66 0.33 390.32 0.66 391 1 C372.58969733 63.35269651 372.58969733 63.35269651 341.8059082 80.27368164 C340.7149585 80.8639917 339.62400879 81.45430176 338.5 82.0625 C337.32140674 82.70807852 336.14327584 83.35450176 334.96557617 84.00170898 C332.5275691 85.34049686 330.08766192 86.67570937 327.64599609 88.0078125 C311.32713459 96.91621585 295.12809462 106.01235605 279.09765625 115.4296875 C274.72216399 117.99877069 270.33313398 120.54275461 265.93359375 123.0703125 C265.34273483 123.40996033 264.75187592 123.74960815 264.14311218 124.09954834 C261.28035607 125.74467659 258.41631138 127.38747351 255.55053711 129.02734375 C254.52065674 129.61902344 253.49077637 130.21070313 252.4296875 130.8203125 C251.07206299 131.59785889 251.07206299 131.59785889 249.68701172 132.39111328 C246.72304083 134.16583327 243.860365 136.06351872 241 138 C271.32454337 123.84706392 301.2908222 109.29427146 330.29150391 92.56005859 C333.09899183 90.94298199 335.91366704 89.33907353 338.73046875 87.73828125 C347.21023186 82.91476932 355.65167961 78.04871987 364 73 C365 76 365 76 364.09472656 78.15039062 C363.61487305 78.97732422 363.13501953 79.80425781 362.640625 80.65625 C362.10687256 81.58775879 361.57312012 82.51926758 361.02319336 83.47900391 C360.43803955 84.47593262 359.85288574 85.47286133 359.25 86.5 C358.36550171 88.03213135 358.36550171 88.03213135 357.46313477 89.59521484 C356.24472834 91.70358628 355.02210786 93.80952774 353.79541016 95.91308594 C352.12217121 98.78994659 350.46893325 101.67707463 348.82421875 104.5703125 C347.8623107 106.25539763 346.90008835 107.94030339 345.9375 109.625 C345.27766113 110.78612305 345.27766113 110.78612305 344.60449219 111.97070312 C341.31747757 117.67157945 338.23953 122.6238867 332.5 126.125 C331.7471875 126.60195312 330.994375 127.07890625 330.21875 127.5703125 C320.7516038 131.77537986 310.18917705 132.87332038 300.01983643 134.39154053 C285.16989841 136.61428146 270.38573192 139.12308885 255.625 141.875 C254.7823761 142.03206421 253.9397522 142.18912842 253.07159424 142.35095215 C248.37976505 143.22716556 243.68930648 144.1103888 239 145 C249.85426477 144.44646342 260.67950992 143.79307072 271.5 142.75 C272.79228516 142.6264917 274.08457031 142.5029834 275.41601562 142.37573242 C287.29284556 141.1991578 299.08160393 139.4838311 310.86914062 137.62597656 C311.90735962 137.46475563 311.90735962 137.46475563 312.96655273 137.30027771 C314.83718098 137.00878326 316.70672304 136.710342 318.57617188 136.41137695 C322.08450495 135.98984663 325.46998165 135.92875761 329 136 C321.67592839 143.56820733 313.66454682 150.37406865 305.48046875 156.98828125 C303.48050492 158.61029916 301.51552654 160.25996335 299.5625 161.9375 C295.07601291 165.54857498 291.71128313 166.56153047 286 166.4453125 C281.80389309 165.82245288 278.18535135 164.24015605 274.30786133 162.56103516 C266.26178017 159.13103639 257.85310675 156.99791994 249.43505859 154.68164062 C244.2565392 153.23202902 239.12822838 151.61743752 234 150 C235.08796875 150.4846875 236.1759375 150.969375 237.296875 151.46875 C270.50388168 166.51253604 270.50388168 166.51253604 276 181 C277.1951535 188.23438046 276.16164 194.01956918 272 200 C268.91110924 204.11511728 265.72024179 208.13570735 262.48876953 212.13916016 C260.05274484 215.18399129 257.68267575 218.27881286 255.3125 221.375 C254.87856934 221.94049561 254.44463867 222.50599121 253.99755859 223.08862305 C252.99764423 224.391857 251.99870268 225.69583728 251 227 C250 224 250 224 250.42578125 221.9375 C254.4770384 201.2127015 249.52572981 178.89857222 237.87890625 161.51953125 C234.84027233 157.44485583 231.49999513 153.68181306 228 150 C229.14994569 153.07671639 230.47903765 156.01051682 231.953125 158.94140625 C240.40740953 175.8444436 249.31677091 194.68400592 243.00390625 213.68359375 C241.66475115 216.77355086 239.9159985 219.43024337 237.890625 222.11328125 C236.62049913 224.80394262 237.07343991 226.20751015 238 229 C247.55859777 244.11044086 263.70161841 257.8287121 280 265 C280 265.66 280 266.32 280 267 C276.85434954 267.08845016 273.70902625 267.14086835 270.5625 267.1875 C269.68400391 267.21263672 268.80550781 267.23777344 267.90039062 267.26367188 C258.91779806 267.36311017 251.59596452 265.53290966 244.9765625 259.26953125 C238.05583949 251.32300938 233.66801907 241.78726242 230 232 C229.34 232.33 228.68 232.66 228 233 C228.51572712 238.5440665 229.94929451 242.69901832 232.5 247.625 C232.85529785 248.31940186 233.2105957 249.01380371 233.57666016 249.72924805 C239.08570305 260.2387513 245.97608406 269.36598199 254.12890625 277.953125 C256 280 256 280 256 281 C248.26091433 281.56284259 242.85366213 279.61646492 236.45703125 275.2734375 C226.81610564 266.35289902 224.00408906 250.40177467 222 238 C221.5875 238.39268066 221.175 238.78536133 220.75 239.18994141 C218.83739298 241.0059575 216.91875015 242.81547661 215 244.625 C214.35160156 245.24246094 213.70320312 245.85992187 213.03515625 246.49609375 C208.58588887 250.68104822 203.96352858 254.44071438 199 258 C200.27033716 254.78644009 201.59254375 251.60629682 202.98828125 248.4453125 C207.52218627 238.09297738 211.75439927 227.8388532 215 217 C215.34546875 215.89785156 215.6909375 214.79570312 216.046875 213.66015625 C221.74630763 194.17248084 223.72977131 174.23088255 223 154 C222.64808594 155.17691406 222.29617188 156.35382813 221.93359375 157.56640625 C217.33132592 172.94209279 212.68502167 188.30428947 207.953125 203.640625 C207.60958984 204.75421387 207.26605469 205.86780273 206.91210938 207.01513672 C206.22666054 209.23574568 205.54047568 211.4561276 204.85351562 213.67626953 C203.34753252 218.55740044 201.85941466 223.44068025 200.453125 228.3515625 C200.11112061 229.54386475 200.11112061 229.54386475 199.76220703 230.76025391 C199.35085583 232.20612972 198.94516363 233.65363311 198.54638672 235.10302734 C197.70938578 238.05112222 197.20579039 239.79420961 195 242 C189.03844622 224.32587982 183.14812985 206.65103689 177.828125 188.77099609 C176.32358551 183.73664373 174.78395691 178.71295017 173.25 173.6875 C171.149528 166.79675155 169.0646154 159.90158149 167 153 C166.19314819 187.60497782 172.58572672 225.62908235 191.25 255.43359375 C191.62125 256.20896484 191.62125 256.20896484 192 257 C191.67 257.66 191.34 258.32 191 259 C190.27296875 258.25556641 190.27296875 258.25556641 189.53125 257.49609375 C185.44911529 253.35900723 181.28536079 249.40819968 176.859375 245.640625 C174.81879147 243.84011012 172.90692455 241.94067543 171 240 C170.84144531 240.85980469 170.68289062 241.71960938 170.51953125 242.60546875 C168.10106739 254.85812821 165.15666014 268.77807197 154.8359375 276.8984375 C149.48695785 280.10782529 143.19260183 281.48888962 137 281 C137.78375 280.0925 138.5675 279.185 139.375 278.25 C139.9215625 277.60675781 140.468125 276.96351563 141.03125 276.30078125 C142.45325267 274.6389567 143.89306999 272.99231937 145.34375 271.35546875 C151.67215075 264.060229 156.55356626 256.5657735 161 248 C161.46792969 247.10539063 161.93585938 246.21078125 162.41796875 245.2890625 C164.04981684 241.93625517 165.03178661 239.76287859 164.875 236 C164.17605071 233.82128186 164.17605071 233.82128186 162 233 C161.8453125 234.03060547 161.8453125 234.03060547 161.6875 235.08203125 C158.90957651 246.87242243 150.96736916 258.54449815 140.8125 265.125 C132.5127032 268.90970734 121.90471392 267.37969457 113 267 C115.8302094 264.03206496 119.02807599 262.01293251 122.5 259.875 C136.18959363 251.25082252 146.77633624 241.24853522 156 228 C154.51354465 224.80103848 152.73760843 222.44365039 150.31640625 219.85546875 C146.38094256 214.3084502 145.46912988 209.19395013 145.5625 202.5625 C145.57224854 201.77536621 145.58199707 200.98823242 145.59204102 200.17724609 C146.0391795 185.08366957 151.66661361 172.3521302 158.1237793 158.92260742 C159.10721283 156.85448455 159.10721283 156.85448455 160 154 C146.36942167 167.71576945 138.72461087 186.24136695 138.75 205.5 C138.76795132 210.1096067 139.00145614 214.48658175 140 219 C140.03824623 221.33301986 140.04574284 223.66711508 140 226 C136.06726203 222.21105501 132.58788624 218.20762471 129.1875 213.9375 C128.66631592 213.28426758 128.14513184 212.63103516 127.6081543 211.95800781 C113.47264743 194.03982102 113.47264743 194.03982102 113.59375 183.625 C114.30391402 179.03624785 116.89897176 176.30221352 120 173 C120.48339844 172.42765625 120.96679688 171.8553125 121.46484375 171.265625 C130.57791642 161.15544769 143.78778447 155.38957969 156 150 C155.18023682 150.27674561 154.36047363 150.55349121 153.51586914 150.83862305 C124.74026765 160.53678992 124.74026765 160.53678992 111.95703125 164.16015625 C109.9578718 164.72794922 107.97157922 165.34280693 106 166 C97.9809717 166.52583792 93.24570983 164.33292299 87.2043457 159.07788086 C86.64191162 158.57780518 86.07947754 158.07772949 85.5 157.5625 C84.27494004 156.49195807 83.0496732 155.42165284 81.82421875 154.3515625 C81.19821777 153.80145508 80.5722168 153.25134766 79.92724609 152.68457031 C76.16112326 149.39267171 72.34104363 146.16326347 68.53125 142.92211914 C65.92626754 140.6949964 63.40198791 138.4437153 61 136 C69.19272252 136.67428928 77.34648479 137.60779607 85.50402832 138.61386108 C87.67656466 138.88134876 89.8494585 139.14575094 92.02246094 139.40942383 C98.67647824 140.21798792 105.32850731 141.0380631 111.9765625 141.89453125 C113.04438965 142.02939941 114.1122168 142.16426758 115.21240234 142.30322266 C117.12244657 142.54485661 119.03176558 142.79236926 120.93994141 143.04833984 C130.91474087 144.29812036 140.96269247 144.59091173 151 145 C149.58631638 144.76569527 149.58631638 144.76569527 148.14407349 144.5266571 C139.22806595 143.04803878 130.31322609 141.56255137 121.39946175 140.07046795 C116.81764889 139.30373721 112.23546932 138.53936548 107.65234375 137.78051758 C103.22286382 137.04701792 98.79448949 136.30714855 94.36678696 135.56299782 C92.68403234 135.28130519 91.00090251 135.00184387 89.31738663 134.72473717 C66.55199406 130.97365627 66.55199406 130.97365627 58.75 126.25 C57.98171875 125.80140625 57.2134375 125.3528125 56.421875 124.890625 C49.33697727 119.35983387 45.41776817 111.84612311 41.1875 104.0625 C39.95990334 101.83318578 38.73203843 99.60401925 37.50390625 97.375 C36.90980957 96.29089844 36.31571289 95.20679688 35.70361328 94.08984375 C34.18679452 91.33878925 32.6480249 88.6027748 31.08984375 85.875 C30.66743408 85.13499756 30.24502441 84.39499512 29.80981445 83.63256836 C29.0388289 82.28552808 28.26535684 80.93990691 27.48901367 79.59594727 C25 75.22111711 25 75.22111711 25 73 C29.09851487 74.48552119 32.68554434 76.5272212 36.375 78.8125 C69.29500483 98.85040351 103.70285561 116.87135596 138.4375 133.5625 C139.39019775 134.02156738 140.34289551 134.48063477 141.32446289 134.95361328 C142.61598267 135.5663208 142.61598267 135.5663208 143.93359375 136.19140625 C144.67665771 136.54404541 145.41972168 136.89668457 146.18530273 137.26000977 C147.98202877 138.12586323 147.98202877 138.12586323 150 138 C148.46859375 137.16082031 148.46859375 137.16082031 146.90625 136.3046875 C138.07652413 131.44388927 129.32143902 126.47055286 120.625 121.375 C111.79671602 116.20427982 102.94556918 111.07588671 94.0625 106 C93.47597656 105.66477325 92.88945312 105.32954651 92.28515625 104.98416138 C84.96392214 100.80248465 77.62137719 96.66067999 70.25585938 92.55737305 C65.16268749 89.71887496 60.07858632 86.8645045 55 84 C53.99050293 83.43120117 52.98100586 82.86240234 51.94091797 82.27636719 C21.23432818 64.87777557 12.52906729 45.11616974 2.80224609 11.90625 C1.71379007 7.96316404 0.82881101 4.00521868 0 0 Z " fill="#FBFBFB" transform="translate(50,77)"/>
<path d="M0 0 C5.83699651 5.33668252 10.73069203 11.55405608 11.22265625 19.67578125 C11.15767558 24.19451675 10.01160793 27.9823831 8.4375 32.1875 C8.16647461 32.92436035 7.89544922 33.6612207 7.61621094 34.42041016 C2.88347269 46.9121347 -3.36583688 58.89355798 -14.53515625 66.79296875 C-19.78861762 68.62309227 -24.85898856 68.31419284 -30.375 68.1875 C-32.05142578 68.16719727 -32.05142578 68.16719727 -33.76171875 68.14648438 C-36.50831211 68.11127164 -39.25390289 68.06202096 -42 68 C-38.7438404 65.28756345 -35.40228566 62.92259952 -31.83642578 60.65258789 C-17.5884915 51.53559523 -1.34074527 38.66415231 4 22 C5.08524852 15.16874817 4.05123055 9.87614756 0.875 3.77734375 C0 2 0 2 0 0 Z " fill="#F8F8F8" transform="translate(225,324)"/>
<path d="M0 0 C0.33 0.66 0.66 1.32 1 2 C0.525625 3.11375 0.05125 4.2275 -0.4375 5.375 C-2.86250177 11.60105105 -3.10878341 18.05765899 -1.296875 24.5 C5.97240913 40.99151026 22.17166677 53.53361016 37.28515625 62.30859375 C39.59379755 63.74692711 41.14933936 65.0603555 43 67 C39.33360752 67.11728126 35.6677048 67.18760891 32 67.25 C30.97003906 67.28351563 29.94007813 67.31703125 28.87890625 67.3515625 C20.99627975 67.45197812 15.76033521 66.18825002 9.71484375 61.0625 C-1.14739582 48.45752749 -9.48885377 32.81094044 -9.3515625 15.85546875 C-8.56760892 9.48802357 -4.82867186 4.11331307 0 0 Z " fill="#F7F7F7" transform="translate(264,325)"/>
<path d="M0 0 C0.33 0 0.66 0 1 0 C10.69873646 40.51028087 10.69873646 40.51028087 2.3125 54.97265625 C1.879375 55.64167969 1.44625 56.31070313 1 57 C-4.35254887 52.37076854 -6.51373979 47.89008165 -7.390625 40.875 C-8.01870693 27.39978778 -4.66520017 13.90026536 -1 1 C-0.67 0.67 -0.34 0.34 0 0 Z " fill="#F8F8F8" transform="translate(245,366)"/>
<path d="M0 0 C2 1 2 1 3.19140625 4.21875 C3.65004861 5.64531636 4.10694992 7.07244316 4.5625 8.5 C9.77623922 23.89007101 17.52505202 36.64990701 28 49 C28.6703125 49.79921875 29.340625 50.5984375 30.03125 51.421875 C31.3374718 52.9622309 32.66496185 54.48455129 34 56 C26.29892574 56.66965863 20.24787208 53.99869051 13.75 50 C5.01400374 41.98169182 1.24008726 26.4173551 0 15 C-0.20870121 9.99991881 -0.12150134 5.0018053 0 0 Z " fill="#F1F1F1" transform="translate(250,351)"/>
<path d="M0 0 C0.33 0 0.66 0 1 0 C1.50159409 15.46581778 -0.29659861 35.26272928 -11.3125 47.375 C-17.2779031 52.29478188 -24.33809413 54.66625268 -32 54 C-30.61027754 50.80154329 -29.02540776 48.93581864 -26.4375 46.625 C-13.66387732 33.94294451 -7.23126204 16.16320667 0 0 Z " fill="#F6F6F6" transform="translate(239,353)"/>
<path d="M0 0 C0.66 0.33 1.32 0.66 2 1 C1 4 1 4 -0.64233398 5.09082031 C-1.33657471 5.41663086 -2.03081543 5.74244141 -2.74609375 6.078125 C-3.50083984 6.43390625 -4.25558594 6.7896875 -5.03320312 7.15625 C-5.82662109 7.5171875 -6.62003906 7.878125 -7.4375 8.25 C-8.22705078 8.62640625 -9.01660156 9.0028125 -9.83007812 9.390625 C-14.20253282 11.41843008 -14.20253282 11.41843008 -16 12 C-16.66 11.67 -17.32 11.34 -18 11 C-15.04968544 9.13283045 -12.08856877 7.28354701 -9.125 5.4375 C-8.28324219 4.90447266 -7.44148438 4.37144531 -6.57421875 3.82226562 C-5.76855469 3.32275391 -4.96289062 2.82324219 -4.1328125 2.30859375 C-3.01737061 1.60947876 -3.01737061 1.60947876 -1.87939453 0.89624023 C-1.25919434 0.60048096 -0.63899414 0.30472168 0 0 Z " fill="#1F1F1F" transform="translate(307,204)"/>
<path d="M0 0 C-7.692641 0.84800767 -15.26291674 1.12152487 -23 1 C-23 0.67 -23 0.34 -23 0 C-20.41842632 -0.53132389 -17.83538244 -1.05034379 -15.25 -1.5625 C-14.52039063 -1.71396484 -13.79078125 -1.86542969 -13.0390625 -2.02148438 C-7.41658215 -3.12042372 -4.7538089 -3.16920593 0 0 Z " fill="#363636" transform="translate(307,222)"/>
<path d="M0 0 C9.405 1.485 9.405 1.485 19 3 C19 3.33 19 3.66 19 4 C10.28299826 4.14368684 1.68679101 3.71961582 -7 3 C-7 2.67 -7 2.34 -7 2 C-3.535 1.505 -3.535 1.505 0 1 C0 0.67 0 0.34 0 0 Z " fill="#393939" transform="translate(187,219)"/>
<path d="M0 0 C-3.96 1.65 -7.92 3.3 -12 5 C-12.33 4.01 -12.66 3.02 -13 2 C-11.39935157 1.46845258 -9.79431126 0.95011647 -8.1875 0.4375 C-7.29417969 0.14746094 -6.40085938 -0.14257812 -5.48046875 -0.44140625 C-3 -1 -3 -1 0 0 Z " fill="#3D3D3D" transform="translate(209,227)"/>
<path d="M0 0 C3.59391114 1.33488128 6.75490696 2.96022723 10 5 C7 6 7 6 4.95703125 5.22265625 C4.24933594 4.83980469 3.54164063 4.45695313 2.8125 4.0625 C2.09707031 3.68222656 1.38164062 3.30195313 0.64453125 2.91015625 C0.10183594 2.60980469 -0.44085938 2.30945313 -1 2 C-0.67 1.34 -0.34 0.68 0 0 Z " fill="#2C2C2C" transform="translate(191,210)"/>
<path d="M0 0 C0 3.54823932 -0.67734388 4.41927097 -3 7 C-3.99 7.33 -4.98 7.66 -6 8 C-4.55746343 4.63408134 -2.66735273 2.48952921 0 0 Z " fill="#161616" transform="translate(211,229)"/>
</svg>
